<svg width="30" height="30" viewBox="0 0 30 30" fill="none" xmlns="http://www.w3.org/2000/svg">
<path d="M24.0373 19.0747L20.8623 18.7122C20.0998 18.6247 19.3498 18.8872 18.8123 19.4247L16.5123 21.7247C12.9748 19.9247 10.0748 17.0372 8.27481 13.4872L10.5873 11.1747C11.1248 10.6372 11.3873 9.88721 11.2998 9.12471L10.9373 5.97471C10.7873 4.71221 9.72481 3.76221 8.44981 3.76221H6.28731C4.87481 3.76221 3.69981 4.93721 3.78731 6.34971C4.44981 17.0247 12.9873 25.5497 23.6498 26.2122C25.0623 26.2997 26.2373 25.1247 26.2373 23.7122V21.5497C26.2498 20.2872 25.2998 19.2247 24.0373 19.0747Z"/>
</svg>
